<svg width="16" height="16" viewBox="0 0 16 16" fill="none" xmlns="http://www.w3.org/2000/svg">
<g clip-path="url(#clip0_3139_3213)">
<path d="M7.10081 16C5.73323 16 4.57224 15.52 3.61786 14.56C2.66347 13.6001 2.18628 12.4364 2.18628 11.0688V3.4979C2.18628 2.52625 2.52368 1.70035 3.19849 1.02021C3.87316 0.340071 4.69631 0 5.66796 0C6.63961 0 7.46284 0.340071 8.13765 1.02021C8.81246 1.70035 9.14986 2.52625 9.14986 3.4979V10.3684C9.14986 10.5474 9.0893 10.6974 8.96817 10.8185C8.84705 10.9395 8.69702 11 8.51807 11C8.33898 11 8.18895 10.9395 8.06796 10.8185C7.94712 10.6974 7.8867 10.5474 7.8867 10.3684V3.4899C7.878 2.868 7.662 2.3414 7.2387 1.9101C6.8154 1.47881 6.29182 1.26316 5.66796 1.26316C5.04677 1.26316 4.52172 1.48014 4.09281 1.9141C3.66389 2.34821 3.44944 2.87614 3.44944 3.4979V11.0688C3.44074 12.0869 3.79267 12.9528 4.50523 13.6663C5.21779 14.38 6.08312 14.7368 7.10123 14.7368C7.33982 14.7368 7.56979 14.7123 7.79112 14.6632C8.01246 14.614 8.22403 14.5517 8.42586 14.4762C8.59105 14.4135 8.75421 14.4156 8.91533 14.4827C9.07632 14.5498 9.18902 14.6658 9.25344 14.8307C9.31603 14.9959 9.31253 15.1595 9.24291 15.3215C9.1733 15.4834 9.05589 15.5957 8.8907 15.6583C8.6121 15.7706 8.32305 15.8556 8.02354 15.9133C7.72389 15.9711 7.41631 16 7.10081 16ZM5.66775 12.1619C5.48881 12.1619 5.33884 12.1014 5.21786 11.9804C5.09702 11.8593 5.0366 11.7093 5.0366 11.5303V3.90295C5.0366 3.724 5.09709 3.57397 5.21807 3.45284C5.33919 3.33186 5.4893 3.27137 5.66839 3.27137C5.84733 3.27137 5.9973 3.33186 6.11828 3.45284C6.23912 3.57397 6.29954 3.724 6.29954 3.90295V11.5303C6.29954 11.7093 6.23898 11.8593 6.11786 11.9804C5.99688 12.1014 5.84684 12.1619 5.66775 12.1619ZM11.3682 8.5C11.1891 8.5 11.0391 8.43951 10.9183 8.31853C10.7973 8.1974 10.7368 8.04737 10.7368 7.86842V3.90295C10.7368 3.724 10.7974 3.57397 10.9185 3.45284C11.0396 3.33186 11.1897 3.27137 11.3688 3.27137C11.5478 3.27137 11.6977 3.33186 11.8187 3.45284C11.9395 3.57397 12 3.724 12 3.90295V7.86842C12 8.04737 11.9394 8.1974 11.8183 8.31853C11.6972 8.43951 11.5471 8.5 11.3682 8.5Z" fill="#333333"/>
<path d="M12.5 16C14.433 16 16 14.433 16 12.5C16 10.567 14.433 9 12.5 9C10.567 9 9 10.567 9 12.5C9 14.433 10.567 16 12.5 16Z" fill="#029747"/>
<path d="M10 12H15V13H10V12Z" fill="white"/>
<path d="M13 10V15H12V10H13Z" fill="white"/>
</g>
<defs>
<clipPath id="clip0_3139_3213">
<rect width="16" height="16" fill="white"/>
</clipPath>
</defs>
</svg>
